<svg width="24" height="24" viewBox="0 0 24 24" fill="none" xmlns="http://www.w3.org/2000/svg">
<path d="M21.6604 8.75072L12.6605 16.7507C12.478 16.911 12.2434 16.9994 12.0005 16.9994C11.7575 16.9994 11.5229 16.911 11.3405 16.7507L2.34045 8.75072C2.15462 8.57222 2.04486 8.32889 2.03405 8.07144C2.02325 7.814 2.11224 7.56232 2.28246 7.36889C2.45268 7.17545 2.69101 7.05519 2.94773 7.03317C3.20446 7.01116 3.45978 7.08909 3.66045 7.25072L12.0005 14.6607L20.3405 7.25072C20.4378 7.15721 20.5531 7.08438 20.6793 7.03661C20.8056 6.98885 20.9402 6.96714 21.0751 6.9728C21.21 6.97846 21.3423 7.01137 21.4641 7.06955C21.5859 7.12772 21.6947 7.20996 21.7839 7.3113C21.8731 7.41264 21.9408 7.53098 21.983 7.6592C22.0252 7.78742 22.041 7.92286 22.0295 8.05736C22.018 8.19186 21.9793 8.32263 21.9159 8.44179C21.8525 8.56095 21.7656 8.66604 21.6604 8.75072Z" fill="#5F4BDB"/>
</svg>
