<svg width="204" height="201" viewBox="0 0 204 201" fill="none" xmlns="http://www.w3.org/2000/svg">
<rect width="204" height="201" rx="17" fill="white"/>
<rect x="36" y="30" width="13" height="140.854" rx="6.5" fill="#EEEEEE"/>
<rect x="36" y="108.946" width="13" height="62.0541" rx="6.5" fill="url(#paint0_linear_1_3)"/>
<rect x="66" y="30" width="13" height="140.854" rx="6.5" fill="#EEEEEE"/>
<rect x="66" y="140.142" width="13" height="30.7125" rx="6.5" fill="url(#paint1_linear_1_3)"/>
<rect x="96" y="30" width="13" height="140.854" rx="6.5" fill="#EEEEEE"/>
<rect x="96" y="113.665" width="13" height="57.1889" rx="6.5" fill="url(#paint2_linear_1_3)"/>
<rect x="126" y="30" width="13" height="140.854" rx="6.5" fill="#EEEEEE"/>
<rect x="126" y="82.9526" width="13" height="87.9014" rx="6.5" fill="url(#paint3_linear_1_3)"/>
<rect x="156" y="30" width="13" height="140.854" rx="6.5" fill="#EEEEEE"/>
<rect x="156" y="49.063" width="13" height="121.791" rx="6.5" fill="url(#paint4_linear_1_3)"/>
<defs>
<linearGradient id="paint0_linear_1_3" x1="42.5" y1="108.946" x2="42.5" y2="171" gradientUnits="userSpaceOnUse">
<stop stop-color="#FFC188"/>
<stop offset="1" stop-color="#FA7C61"/>
</linearGradient>
<linearGradient id="paint1_linear_1_3" x1="72.5" y1="140.142" x2="72.5" y2="170.854" gradientUnits="userSpaceOnUse">
<stop stop-color="#FFC188"/>
<stop offset="1" stop-color="#FA7C61"/>
</linearGradient>
<linearGradient id="paint2_linear_1_3" x1="102.5" y1="113.665" x2="102.5" y2="170.854" gradientUnits="userSpaceOnUse">
<stop stop-color="#FFC188"/>
<stop offset="1" stop-color="#FA7C61"/>
</linearGradient>
<linearGradient id="paint3_linear_1_3" x1="132.5" y1="82.9526" x2="132.5" y2="170.854" gradientUnits="userSpaceOnUse">
<stop stop-color="#FFC188"/>
<stop offset="1" stop-color="#FA7C61"/>
</linearGradient>
<linearGradient id="paint4_linear_1_3" x1="162.5" y1="49.063" x2="162.5" y2="170.854" gradientUnits="userSpaceOnUse">
<stop stop-color="#FFC188"/>
<stop offset="1" stop-color="#FA7C61"/>
</linearGradient>
</defs>
</svg>
