<svg width="282" height="279" viewBox="0 0 282 279" fill="none" xmlns="http://www.w3.org/2000/svg">
<g filter="url(#filter0_d_1_943)">
<rect x="39" y="28" width="204" height="201" rx="17" fill="white"/>
</g>
<rect x="71.25" y="55.25" width="0.5" height="146.5" stroke="#C4C4C4" stroke-width="0.5" stroke-dasharray="4 8"/>
<rect x="99.25" y="55.25" width="0.5" height="146.5" stroke="#C4C4C4" stroke-width="0.5" stroke-dasharray="4 8"/>
<rect x="127.25" y="55.25" width="0.5" height="146.5" stroke="#C4C4C4" stroke-width="0.5" stroke-dasharray="4 8"/>
<rect x="155.25" y="55.25" width="0.5" height="146.5" stroke="#C4C4C4" stroke-width="0.5" stroke-dasharray="4 8"/>
<rect x="183.25" y="55.25" width="0.5" height="146.5" stroke="#C4C4C4" stroke-width="0.5" stroke-dasharray="4 8"/>
<rect x="211.25" y="55.25" width="0.5" height="146.5" stroke="#C4C4C4" stroke-width="0.5" stroke-dasharray="4 8"/>
<path d="M71 159.855L73.4977 167.882C76.7497 178.333 83.8414 177.04 86.2922 165.55L95.7041 121.423C97.474 113.126 101.222 107.841 105.336 107.841H106.859C109.224 107.841 111.522 109.597 113.392 112.832L120.586 125.28L131.367 143.59L137.415 153.232C141.515 159.769 147.103 159.008 150.818 151.407L166.181 119.973C169.691 112.791 174.907 111.672 178.964 117.231L183.874 123.957C188.334 130.068 194.119 128.051 197.534 119.196L202.13 107.279C205.617 98.2379 211.559 96.3506 216.035 102.862L223 112.994" stroke="#44B563" stroke-width="6" stroke-linecap="round"/>
<g filter="url(#filter1_d_1_943)">
<circle cx="176.5" cy="115.5" r="12.5" fill="#F8A94C"/>
<circle cx="176.5" cy="115.5" r="10.5" stroke="white" stroke-width="4"/>
</g>
<defs>
<filter id="filter0_d_1_943" x="0" y="0" width="282" height="279" filterUnits="userSpaceOnUse" color-interpolation-filters="sRGB">
<feFlood flood-opacity="0" result="BackgroundImageFix"/>
<feColorMatrix in="SourceAlpha" type="matrix" values="0 0 0 0 0 0 0 0 0 0 0 0 0 0 0 0 0 0 127 0" result="hardAlpha"/>
<feOffset dy="11"/>
<feGaussianBlur stdDeviation="19.5"/>
<feColorMatrix type="matrix" values="0 0 0 0 0 0 0 0 0 0 0 0 0 0 0 0 0 0 0.07 0"/>
<feBlend mode="normal" in2="BackgroundImageFix" result="effect1_dropShadow_1_943"/>
<feBlend mode="normal" in="SourceGraphic" in2="effect1_dropShadow_1_943" result="shape"/>
</filter>
<filter id="filter1_d_1_943" x="135" y="93" width="83" height="83" filterUnits="userSpaceOnUse" color-interpolation-filters="sRGB">
<feFlood flood-opacity="0" result="BackgroundImageFix"/>
<feColorMatrix in="SourceAlpha" type="matrix" values="0 0 0 0 0 0 0 0 0 0 0 0 0 0 0 0 0 0 127 0" result="hardAlpha"/>
<feOffset dy="19"/>
<feGaussianBlur stdDeviation="14.5"/>
<feColorMatrix type="matrix" values="0 0 0 0 0.243137 0 0 0 0 0.207843 0 0 0 0 0.470588 0 0 0 0.14 0"/>
<feBlend mode="normal" in2="BackgroundImageFix" result="effect1_dropShadow_1_943"/>
<feBlend mode="normal" in="SourceGraphic" in2="effect1_dropShadow_1_943" result="shape"/>
</filter>
</defs>
</svg>
