<svg width="32" height="32" viewBox="0 0 32 32" fill="none" xmlns="http://www.w3.org/2000/svg">
<path d="M16 1.33325C13.0992 1.33325 10.2636 2.19344 7.85164 3.80503C5.43972 5.41663 3.55985 7.70725 2.44977 10.3872C1.33968 13.0672 1.04923 16.0162 1.61515 18.8612C2.18107 21.7063 3.57793 24.3196 5.6291 26.3708C7.68027 28.422 10.2936 29.8189 13.1387 30.3848C15.9837 30.9507 18.9327 30.6602 21.6127 29.5502C24.2927 28.4401 26.5833 26.5602 28.1949 24.1483C29.8065 21.7364 30.6667 18.9007 30.6667 15.9999C30.6621 12.1115 29.1154 8.38363 26.3658 5.63409C23.6163 2.88455 19.8884 1.33784 16 1.33325ZM16 27.9999C13.6266 27.9999 11.3065 27.2961 9.33316 25.9776C7.35977 24.659 5.8217 22.7848 4.91345 20.5921C4.0052 18.3994 3.76756 15.9866 4.23058 13.6588C4.6936 11.3311 5.83649 9.19287 7.51472 7.51464C9.19295 5.83641 11.3311 4.69352 13.6589 4.2305C15.9867 3.76747 18.3995 4.00511 20.5922 4.91336C22.7849 5.82162 24.6591 7.35969 25.9776 9.33308C27.2962 11.3065 28 13.6265 28 15.9999C27.9965 19.1814 26.7311 22.2316 24.4814 24.4813C22.2317 26.731 19.1815 27.9964 16 27.9999Z" fill="#30C736"/>
<path d="M21.7653 11.684L14.7067 18.1547L11.6093 15.0573C11.4863 14.93 11.3392 14.8284 11.1765 14.7585C11.0139 14.6887 10.8389 14.6519 10.6619 14.6503C10.4848 14.6488 10.3093 14.6825 10.1454 14.7496C9.98154 14.8166 9.83267 14.9156 9.70748 15.0408C9.58229 15.166 9.48329 15.3149 9.41624 15.4787C9.3492 15.6426 9.31547 15.8182 9.31701 15.9952C9.31854 16.1723 9.35533 16.3472 9.4252 16.5099C9.49508 16.6726 9.59666 16.8197 9.72401 16.9427L13.724 20.9427C13.967 21.1857 14.2944 21.3255 14.638 21.333C14.9815 21.3404 15.3147 21.2149 15.568 20.9827L23.568 13.6494C23.8286 13.4103 23.9836 13.0775 23.9988 12.7242C24.0141 12.3709 23.8884 12.026 23.6493 11.7654C23.4103 11.5047 23.0775 11.3497 22.7242 11.3345C22.3709 11.3192 22.0259 11.445 21.7653 11.684Z" fill="#30C736"/>
</svg>
