<svg width="47" height="47" viewBox="0 0 47 47" fill="none" xmlns="http://www.w3.org/2000/svg">
<circle cx="2.17947" cy="23.1023" r="2.17947" transform="rotate(-90 2.17947 23.1023)" fill="#CCCCCC"/>
<circle cx="2.17947" cy="33.7224" r="2.17947" transform="rotate(-90 2.17947 33.7224)" fill="#CCCCCC"/>
<circle cx="2.17947" cy="44.3423" r="2.17947" transform="rotate(-90 2.17947 44.3423)" fill="#CCCCCC"/>
<circle cx="2.17947" cy="12.6411" r="2.17947" transform="rotate(-90 2.17947 12.6411)" fill="#CCCCCC"/>
<circle cx="2.17947" cy="2.17966" r="2.17947" transform="rotate(-90 2.17947 2.17966)" fill="#CCCCCC"/>
<circle cx="12.641" cy="23.1023" r="2.17947" transform="rotate(-90 12.641 23.1023)" fill="#CCCCCC"/>
<circle cx="12.641" cy="33.7224" r="2.17947" transform="rotate(-90 12.641 33.7224)" fill="#CCCCCC"/>
<circle cx="12.641" cy="44.3423" r="2.17947" transform="rotate(-90 12.641 44.3423)" fill="#CCCCCC"/>
<circle cx="12.641" cy="12.6411" r="2.17947" transform="rotate(-90 12.641 12.6411)" fill="#CCCCCC"/>
<circle cx="12.641" cy="2.17966" r="2.17947" transform="rotate(-90 12.641 2.17966)" fill="#CCCCCC"/>
<circle cx="23.1024" cy="23.1023" r="2.17947" transform="rotate(-90 23.1024 23.1023)" fill="#CCCCCC"/>
<circle cx="23.1024" cy="33.7224" r="2.17947" transform="rotate(-90 23.1024 33.7224)" fill="#CCCCCC"/>
<circle cx="23.1024" cy="44.3423" r="2.17947" transform="rotate(-90 23.1024 44.3423)" fill="#CCCCCC"/>
<circle cx="23.1024" cy="12.6411" r="2.17947" transform="rotate(-90 23.1024 12.6411)" fill="#CCCCCC"/>
<circle cx="23.1024" cy="2.17966" r="2.17947" transform="rotate(-90 23.1024 2.17966)" fill="#CCCCCC"/>
<circle cx="33.5639" cy="23.1023" r="2.17947" transform="rotate(-90 33.5639 23.1023)" fill="#CCCCCC"/>
<circle cx="33.5639" cy="33.7224" r="2.17947" transform="rotate(-90 33.5639 33.7224)" fill="#CCCCCC"/>
<circle cx="33.5639" cy="44.3423" r="2.17947" transform="rotate(-90 33.5639 44.3423)" fill="#CCCCCC"/>
<circle cx="33.5639" cy="12.6411" r="2.17947" transform="rotate(-90 33.5639 12.6411)" fill="#CCCCCC"/>
<circle cx="33.5639" cy="2.17966" r="2.17947" transform="rotate(-90 33.5639 2.17966)" fill="#CCCCCC"/>
<circle cx="44.0253" cy="23.1023" r="2.17947" transform="rotate(-90 44.0253 23.1023)" fill="#CCCCCC"/>
<circle cx="44.0253" cy="33.7224" r="2.17947" transform="rotate(-90 44.0253 33.7224)" fill="#CCCCCC"/>
<circle cx="44.0253" cy="44.3423" r="2.17947" transform="rotate(-90 44.0253 44.3423)" fill="#CCCCCC"/>
<circle cx="44.0253" cy="12.6411" r="2.17947" transform="rotate(-90 44.0253 12.6411)" fill="#CCCCCC"/>
<circle cx="44.0253" cy="2.17966" r="2.17947" transform="rotate(-90 44.0253 2.17966)" fill="#CCCCCC"/>
</svg>
