<svg width="1309" height="62" viewBox="0 0 1309 62" fill="none" xmlns="http://www.w3.org/2000/svg">
<path d="M75.1176 42.1582H69.9062V31.4755H60.1413V42.1582H54.9131V17.4068H60.1413V27.1076H69.9062V17.4068H75.1176V42.1582Z" fill="#CACACA"/>
<path d="M80.7337 18.338C80.7337 16.6563 81.6669 15.8154 83.5333 15.8154C85.3997 15.8154 86.3329 16.6563 86.3329 18.338C86.3329 19.1393 86.0968 19.7657 85.6246 20.2172C85.1636 20.6574 84.4665 20.8774 83.5333 20.8774C81.6669 20.8774 80.7337 20.031 80.7337 18.338ZM86.0968 42.1582H80.9529V23.2307H86.0968V42.1582Z" fill="#CACACA"/>
<path d="M107.92 23.2307V25.8548L104.969 26.6167C105.509 27.4631 105.779 28.4112 105.779 29.4609C105.779 31.4924 105.07 33.0782 103.654 34.2181C102.248 35.3468 100.292 35.9111 97.7844 35.9111L96.8568 35.8603L96.0979 35.7757C95.5695 36.182 95.3052 36.6335 95.3052 37.1301C95.3052 37.875 96.2497 38.2474 98.1386 38.2474H101.343C103.412 38.2474 104.986 38.6932 106.065 39.5849C107.156 40.4765 107.701 41.7858 107.701 43.5126C107.701 45.7248 106.779 47.4403 104.935 48.6593C103.103 49.8782 100.466 50.4877 97.0255 50.4877C94.3945 50.4877 92.3819 50.0249 90.9877 49.0994C89.6048 48.1852 88.9133 46.8986 88.9133 45.2394C88.9133 44.0995 89.2675 43.1458 89.9758 42.3783C90.6842 41.6108 91.7242 41.0634 93.0959 40.7361C92.5674 40.5104 92.1065 40.1436 91.7129 39.6357C91.3194 39.1165 91.1227 38.5691 91.1227 37.9935C91.1227 37.2711 91.3307 36.673 91.7467 36.1989C92.1627 35.7136 92.7642 35.2396 93.5513 34.7768C92.5618 34.3479 91.7748 33.6595 91.1901 32.7114C90.6167 31.7633 90.33 30.6459 90.33 29.3593C90.33 27.2938 90.999 25.6968 92.337 24.5681C93.6749 23.4395 95.5863 22.8752 98.0711 22.8752C98.5996 22.8752 99.2236 22.926 99.9432 23.0275C100.674 23.1178 101.141 23.1855 101.343 23.2307H107.92ZM93.3657 44.8331C93.3657 45.5442 93.703 46.1029 94.3776 46.5092C95.0635 46.9155 96.0192 47.1187 97.2447 47.1187C99.0887 47.1187 100.533 46.8647 101.579 46.3568C102.625 45.8489 103.148 45.1548 103.148 44.2744C103.148 43.5634 102.838 43.0724 102.22 42.8016C101.602 42.5307 100.646 42.3952 99.3529 42.3952H96.6882C95.7437 42.3952 94.9511 42.6153 94.3102 43.0555C93.6806 43.507 93.3657 44.0995 93.3657 44.8331ZM95.2378 29.427C95.2378 30.4541 95.4683 31.2667 95.9292 31.8649C96.4015 32.4631 97.1154 32.7622 98.0711 32.7622C99.0381 32.7622 99.7464 32.4631 100.196 31.8649C100.646 31.2667 100.871 30.4541 100.871 29.427C100.871 27.1471 99.9375 26.0072 98.0711 26.0072C96.1822 26.0072 95.2378 27.1471 95.2378 29.427Z" fill="#CACACA"/>
<path d="M128.445 42.1582H123.301V31.1031C123.301 28.3717 122.29 27.006 120.266 27.006C118.827 27.006 117.787 27.497 117.146 28.4789C116.505 29.4609 116.184 31.0523 116.184 33.2531V42.1582H111.04V15.8154H116.184V21.1822C116.184 21.5998 116.145 22.5817 116.066 24.128L115.948 25.6517H116.218C117.365 23.8007 119.186 22.8752 121.682 22.8752C123.897 22.8752 125.578 23.4733 126.725 24.6697C127.872 25.8661 128.445 27.5816 128.445 29.8164V42.1582Z" fill="#CACACA"/>
<path d="M138.885 42.1582H133.741V15.8154H138.885V42.1582Z" fill="#CACACA"/>
<path d="M148.397 32.6606C148.397 34.5342 148.7 35.9506 149.308 36.91C149.926 37.8693 150.927 38.349 152.31 38.349C153.681 38.349 154.665 37.875 155.261 36.9269C155.868 35.9675 156.172 34.5454 156.172 32.6606C156.172 30.787 155.868 29.3819 155.261 28.4451C154.654 27.5083 153.659 27.0399 152.276 27.0399C150.904 27.0399 149.915 27.5083 149.308 28.4451C148.7 29.3706 148.397 30.7757 148.397 32.6606ZM161.434 32.6606C161.434 35.7418 160.624 38.1515 159.005 39.8896C157.386 41.6278 155.132 42.4968 152.242 42.4968C150.432 42.4968 148.835 42.1018 147.452 41.3117C146.069 40.5104 145.007 39.3648 144.265 37.875C143.523 36.3852 143.152 34.647 143.152 32.6606C143.152 29.5681 143.956 27.164 145.564 25.4485C147.171 23.7329 149.431 22.8752 152.343 22.8752C154.154 22.8752 155.75 23.2702 157.133 24.0602C158.516 24.8503 159.578 25.9846 160.321 27.4631C161.063 28.9417 161.434 30.6742 161.434 32.6606Z" fill="#CACACA"/>
<path d="M181.183 42.1582L179.732 35.5387L177.776 27.1753H177.658L174.217 42.1582H168.686L163.323 23.2307H168.45L170.625 31.6109C170.974 33.1121 171.328 35.1831 171.688 37.8242H171.789C171.834 36.9664 172.031 35.6064 172.379 33.7441L172.649 32.3051L174.976 23.2307H180.643L182.852 32.3051C182.897 32.5534 182.965 32.9202 183.055 33.4055C183.156 33.8908 183.252 34.41 183.342 34.963C183.432 35.5048 183.51 36.0409 183.578 36.5714C183.656 37.0906 183.701 37.5082 183.713 37.8242H183.814C183.915 37.0116 184.095 35.8998 184.353 34.489C184.612 33.0669 184.798 32.1076 184.91 31.6109L187.17 23.2307H192.213L186.782 42.1582H181.183Z" fill="#CACACA"/>
<path d="M17.9342 46.1588C27.8389 46.1588 35.8684 38.3972 35.8684 28.8227C35.8684 19.2482 27.8389 11.4866 17.9342 11.4866C8.02945 11.4866 3.19678e-07 19.2482 2.05941e-07 28.8227C9.22034e-08 38.3971 8.02938 46.1588 17.9342 46.1588ZM31.2402 28.8227L4.62818 28.8227C4.62818 21.7131 10.5805 15.9604 17.9342 15.9604C25.289 15.9604 31.2402 21.7142 31.2402 28.8227Z" fill="#CACACA"/>
<path d="M324.616 43.9872C323.479 44.8936 322 45.5968 320.179 46.0969C318.357 46.597 316.115 46.847 313.453 46.847C310.807 46.847 307.989 46.6048 305 46.1203V15.2247C308.02 14.7403 310.636 14.498 312.846 14.498C315.072 14.498 316.894 14.709 318.311 15.131C319.743 15.5529 320.91 16.1233 321.813 16.8422C323.588 18.233 324.475 20.038 324.475 22.2571C324.475 24.4606 323.674 26.289 322.07 27.7424C323.969 28.3362 325.441 29.4614 326.484 31.1179C327.433 32.6025 327.908 34.2512 327.908 36.064C327.908 37.8612 327.643 39.4005 327.114 40.682C326.6 41.9634 325.768 43.0652 324.616 43.9872ZM311.188 26.875C311.842 26.9844 312.659 27.0391 313.64 27.0391C314.621 27.0391 315.423 26.9141 316.045 26.6641C316.684 26.3984 317.174 26.0702 317.517 25.6795C318.077 25.0388 318.357 24.148 318.357 23.0072C318.357 20.6162 316.956 19.4207 314.154 19.4207C312.971 19.4207 311.982 19.4676 311.188 19.5614V26.875ZM314.644 31.8915C313.337 31.8915 312.185 31.9774 311.188 32.1493V41.3618C312.278 41.6431 313.422 41.7837 314.621 41.7837C315.82 41.7837 316.871 41.6431 317.773 41.3618C318.692 41.0648 319.463 40.6663 320.085 40.1663C321.346 39.1348 321.977 37.8221 321.977 36.2281C321.977 33.337 319.533 31.8915 314.644 31.8915Z" fill="#CACACA"/>
<path d="M330.617 34.1418C330.617 32.4228 330.905 30.7819 331.481 29.2192C332.073 27.6408 332.913 26.2656 334.003 25.0935C336.385 22.5618 339.475 21.296 343.274 21.296C347.057 21.296 350.061 22.4915 352.287 24.8825C354.42 27.1642 355.487 30.1256 355.487 33.7668C355.487 37.408 354.389 40.4241 352.194 42.8151C349.874 45.3468 346.8 46.6126 342.97 46.6126C339.016 46.6126 335.918 45.3702 333.676 42.8854C331.637 40.6194 330.617 37.7049 330.617 34.1418ZM336.291 34.0012C336.291 34.9857 336.455 35.939 336.782 36.861C337.109 37.7831 337.576 38.5722 338.183 39.2286C339.475 40.6507 341.172 41.3618 343.274 41.3618C345.22 41.3618 346.753 40.6663 347.874 39.2755C348.964 37.9315 349.509 36.1812 349.509 34.0246C349.509 31.8368 348.948 30.0709 347.827 28.7269C346.628 27.2892 344.986 26.5703 342.9 26.5703C340.783 26.5703 339.125 27.3361 337.926 28.8676C336.836 30.274 336.291 31.9852 336.291 34.0012Z" fill="#CACACA"/>
<path d="M358.592 34.1418C358.592 32.4228 358.88 30.7819 359.456 29.2192C360.048 27.6408 360.889 26.2656 361.978 25.0935C364.36 22.5618 367.451 21.296 371.249 21.296C375.032 21.296 378.037 22.4915 380.263 24.8825C382.396 27.1642 383.462 30.1256 383.462 33.7668C383.462 37.408 382.365 40.4241 380.169 42.8151C377.85 45.3468 374.775 46.6126 370.946 46.6126C366.991 46.6126 363.893 45.3702 361.651 42.8854C359.612 40.6194 358.592 37.7049 358.592 34.1418ZM364.267 34.0012C364.267 34.9857 364.43 35.939 364.757 36.861C365.084 37.7831 365.551 38.5722 366.158 39.2286C367.451 40.6507 369.147 41.3618 371.249 41.3618C373.195 41.3618 374.729 40.6663 375.849 39.2755C376.939 37.9315 377.484 36.1812 377.484 34.0246C377.484 31.8368 376.924 30.0709 375.803 28.7269C374.604 27.2892 372.962 26.5703 370.875 26.5703C368.758 26.5703 367.1 27.3361 365.902 28.8676C364.812 30.274 364.267 31.9852 364.267 34.0012Z" fill="#CACACA"/>
<path d="M396.562 46.6126C392.172 46.6126 388.864 45.8078 386.638 44.1982C386.669 43.7293 386.716 43.198 386.778 42.6041L386.988 40.9164C387.113 39.8068 387.191 39.1192 387.222 38.8535C387.253 38.5722 387.276 38.4238 387.292 38.4082C387.307 38.3769 387.432 38.5019 387.665 38.7832C387.899 39.0489 388.343 39.3771 388.996 39.7677C389.65 40.1584 390.405 40.5022 391.262 40.7992C393.114 41.4399 395.045 41.7603 397.053 41.7603C399.746 41.7603 401.093 40.8617 401.093 39.0645C401.093 38.4863 400.836 38.0565 400.322 37.7752C399.404 37.3064 398.049 36.9548 396.259 36.7204C394.484 36.4703 393.029 36.1109 391.892 35.6421C390.756 35.1733 389.829 34.6107 389.113 33.9543C387.79 32.7197 387.128 31.1023 387.128 29.102C387.128 26.6641 388.062 24.7497 389.931 23.3589C391.783 21.9836 394.344 21.296 397.613 21.296C400.851 21.296 403.615 22.218 405.903 24.0621C405.794 24.4684 405.677 24.8591 405.553 25.2342C405.195 26.2656 404.93 27.0079 404.759 27.4611L404.222 28.8441C404.191 28.9691 404.167 29.0316 404.152 29.0316C404.121 29.0316 403.996 28.8676 403.778 28.5394C402.797 27.3986 401.272 26.6484 399.201 26.289C398.563 26.164 397.909 26.1015 397.24 26.1015C394.406 26.1015 392.99 26.961 392.99 28.68C392.99 29.2739 393.285 29.7271 393.877 30.0396C394.982 30.6335 396.492 31.071 398.407 31.3523C400.338 31.6336 401.801 32.0165 402.797 32.5009C403.794 32.9698 404.595 33.5402 405.203 34.2122C406.324 35.4311 406.884 37.0486 406.884 39.0645C406.884 41.268 406.004 43.0573 404.245 44.4326C402.408 45.8859 399.847 46.6126 396.562 46.6126Z" fill="#CACACA"/>
<path d="M420.521 46.6126C416.131 46.6126 412.823 45.8078 410.597 44.1982C410.628 43.7293 410.675 43.198 410.737 42.6041L410.947 40.9164C411.072 39.8068 411.15 39.1192 411.181 38.8535C411.212 38.5722 411.235 38.4238 411.251 38.4082C411.266 38.3769 411.391 38.5019 411.624 38.7832C411.858 39.0489 412.302 39.3771 412.955 39.7677C413.609 40.1584 414.364 40.5022 415.221 40.7992C417.073 41.4399 419.004 41.7603 421.012 41.7603C423.705 41.7603 425.052 40.8617 425.052 39.0645C425.052 38.4863 424.795 38.0565 424.281 37.7752C423.363 37.3064 422.008 36.9548 420.218 36.7204C418.443 36.4703 416.987 36.1109 415.851 35.6421C414.715 35.1733 413.788 34.6107 413.072 33.9543C411.749 32.7197 411.087 31.1023 411.087 29.102C411.087 26.6641 412.021 24.7497 413.889 23.3589C415.742 21.9836 418.303 21.296 421.572 21.296C424.81 21.296 427.574 22.218 429.862 24.0621C429.753 24.4684 429.636 24.8591 429.512 25.2342C429.154 26.2656 428.889 27.0079 428.718 27.4611L428.181 28.8441C428.15 28.9691 428.126 29.0316 428.111 29.0316C428.08 29.0316 427.955 28.8676 427.737 28.5394C426.756 27.3986 425.231 26.6484 423.16 26.289C422.522 26.164 421.868 26.1015 421.199 26.1015C418.365 26.1015 416.949 26.961 416.949 28.68C416.949 29.2739 417.244 29.7271 417.836 30.0396C418.941 30.6335 420.451 31.071 422.366 31.3523C424.297 31.6336 425.76 32.0165 426.756 32.5009C427.753 32.9698 428.554 33.5402 429.162 34.2122C430.282 35.4311 430.843 37.0486 430.843 39.0645C430.843 41.268 429.963 43.0573 428.204 44.4326C426.367 45.8859 423.806 46.6126 420.521 46.6126Z" fill="#CACACA"/>
<path d="M447.096 41.1039C449.104 41.1039 450.482 40.5804 451.229 39.5333H451.416L451.486 44.9717C450.723 45.7375 449.306 46.2454 447.236 46.4954C446.675 46.5735 445.975 46.6126 445.134 46.6126C444.309 46.6126 443.406 46.4563 442.425 46.1438C441.46 45.8312 440.635 45.3233 439.95 44.6201C438.533 43.1667 437.825 40.8929 437.825 37.7987V27.1563H434.299C434.283 26.7031 434.276 26.2421 434.276 25.7733V22.1633C434.276 21.8977 434.283 21.7648 434.299 21.7648H437.825V15.0841H443.546V21.7648H449.968V27.1563H443.546V36.7204C443.546 39.1739 444.223 40.5726 445.578 40.9164C446.014 41.0414 446.52 41.1039 447.096 41.1039Z" fill="#CACACA"/>
<path d="M599.658 34.3239C599.658 37.8401 599.72 40.0983 599.845 41.0984H593.75V16.6023H599.658V18.712C601.791 16.993 603.978 16.1335 606.22 16.1335C608.867 16.1335 610.789 17.2821 611.988 19.5793C613.187 18.3448 614.183 17.5321 614.977 17.1414C616.3 16.4695 617.624 16.1335 618.947 16.1335C620.286 16.1335 621.422 16.3601 622.356 16.8133C623.29 17.2665 624.061 17.9072 624.668 18.7355C625.898 20.4076 626.513 22.7048 626.513 25.6272V34.9568C626.513 37.5979 626.552 39.1841 626.63 39.7154C626.707 40.2467 626.809 40.5905 626.933 40.7468C627.073 40.9031 627.19 41.0437 627.283 41.1688L627.237 41.2625C625.991 41.1531 625.073 41.0984 624.481 41.0984H622.73C622.154 41.0984 621.445 41.1219 620.605 41.1688V28.487C620.605 24.8302 620.044 22.658 618.923 21.9704C618.55 21.7516 618.106 21.6422 617.592 21.6422C617.094 21.6422 616.651 21.7047 616.261 21.8297C615.872 21.9391 615.506 22.1266 615.164 22.3923C614.588 22.8142 613.934 23.6425 613.202 24.8771C613.218 25.0021 613.226 25.1271 613.226 25.2521C613.226 25.3772 613.226 27.44 613.226 31.4406C613.226 35.4413 613.319 38.6605 613.506 41.0984C612.183 41.0984 611.054 41.0984 610.12 41.0984C609.201 41.0984 608.322 41.1219 607.481 41.1688V28.4636C607.481 25.9163 607.325 24.2598 607.014 23.494C606.718 22.7283 606.399 22.2282 606.057 21.9938C605.714 21.7594 605.294 21.6422 604.796 21.6422C602.741 21.6422 601.028 22.6345 599.658 24.6192V34.3239Z" fill="#CACACA"/>
<path d="M649.398 39.6451C647.187 40.8484 645.186 41.4501 643.396 41.4501C641.606 41.4501 640.072 41.286 638.796 40.9578C637.519 40.614 636.437 40.1139 635.55 39.4576C633.744 38.1292 632.841 36.207 632.841 33.691C632.841 31.4406 633.946 29.5653 636.157 28.0651C638.555 26.4398 641.808 25.6272 645.918 25.6272L646.852 25.6506C647.039 25.6663 647.249 25.6819 647.483 25.6975C647.716 25.6975 647.926 25.7131 648.113 25.7444C647.989 23.244 646.914 21.7828 644.891 21.3609C644.221 21.2202 643.505 21.1499 642.742 21.1499C641.995 21.1499 641.256 21.2202 640.524 21.3609C639.808 21.4859 639.107 21.6578 638.422 21.8766C636.912 22.361 635.83 22.9158 635.176 23.5409L635.106 23.494L634.406 18.3135C637.161 16.8602 640.174 16.1335 643.443 16.1335C648.518 16.1335 651.764 17.9697 653.181 21.6422C653.632 22.8142 653.858 24.1348 653.858 25.6038V34.0895C653.858 35.9023 654.496 37.1369 655.773 37.7932L651.546 41.6845C650.659 41.2156 649.942 40.5358 649.398 39.6451ZM648.137 29.9638C647.716 29.8857 647.28 29.8466 646.829 29.8466H645.895C642.454 29.8466 640.267 30.6124 639.333 32.1439C639.053 32.5971 638.913 33.0737 638.913 33.5738C638.913 34.0739 638.998 34.5193 639.169 34.9099C639.356 35.285 639.66 35.5976 640.08 35.8476C640.89 36.3164 642.088 36.5508 643.676 36.5508C645.28 36.5508 646.774 36.168 648.16 35.4022C648.144 35.2303 648.137 35.0506 648.137 34.8631V29.9638Z" fill="#CACACA"/>
<path d="M659.953 9.78089C660.964 8.15563 662.124 6.62413 663.432 5.1864L667.892 8.72603C667.114 9.72619 666.584 10.4138 666.304 10.7889L665.487 11.9375C665.222 12.2969 664.942 12.7032 664.646 13.1564L659.953 9.78089ZM657.361 44.7318C659.665 44.7318 660.817 43.0128 660.817 39.5748V16.6023H666.491V37.887C666.491 44.4505 664.631 48.334 660.91 49.5373C659.696 49.928 658.318 50.1233 656.777 50.1233L654.348 43.9583L654.395 43.8411C655.282 44.4349 656.271 44.7318 657.361 44.7318Z" fill="#CACACA"/>
<path d="M672.422 9.6168C673.668 7.66336 674.968 5.94433 676.322 4.45972L681.343 8.42129C680.673 9.24955 680.051 10.0622 679.475 10.8592C679.475 10.8592 678.875 11.7109 677.677 13.4143L672.422 9.6168ZM678.564 38.473C678.564 39.817 678.595 40.6921 678.657 41.0984H672.726V16.6023H678.564V38.473Z" fill="#CACACA"/>
<path d="M691.314 38.098C691.314 39.4732 691.376 40.4733 691.501 41.0984H685.64V16.6023H691.314V18.6886C693.369 16.9852 695.564 16.1335 697.899 16.1335C700.452 16.1335 702.492 17.0086 704.017 18.7589C705.543 20.4936 706.306 22.783 706.306 25.6272V34.9568C706.306 37.5979 706.345 39.1841 706.423 39.7154C706.501 40.2467 706.602 40.5905 706.726 40.7468C706.866 40.9031 706.983 41.0437 707.077 41.1688L707.03 41.2625C705.769 41.1531 704.85 41.0984 704.274 41.0984H702.64C702.142 41.0984 701.472 41.1219 700.631 41.1688V28.3933C700.631 23.8144 699.246 21.525 696.475 21.525C694.42 21.525 692.7 22.5876 691.314 24.713V38.098Z" fill="#CACACA"/>
<path d="M711.98 29.0496C711.98 27.2212 712.292 25.5256 712.914 23.9629C713.537 22.4001 714.417 21.0327 715.553 19.8606C717.982 17.3759 721.158 16.1335 725.081 16.1335C728.397 16.1335 731.059 17.2352 733.067 19.4387C735.044 21.564 736.033 24.2363 736.033 27.4556C736.033 28.6902 735.939 29.5341 735.753 29.9873C734.196 30.4248 731.028 30.6436 726.248 30.6436H718.029C718.433 32.3158 719.375 33.6207 720.854 34.5583C722.333 35.4803 724.256 35.9414 726.622 35.9414C729.097 35.9414 731.222 35.496 732.997 34.6052C733.464 34.3708 733.814 34.152 734.048 33.9488C734.017 34.6052 733.978 35.2772 733.931 35.9648L733.674 39.6216C732.491 40.4343 730.576 40.9969 727.93 41.3094C727.151 41.4032 726.404 41.4501 725.688 41.4501C721.734 41.4501 718.464 40.2936 715.88 37.9807C713.28 35.6522 711.98 32.6752 711.98 29.0496ZM729.821 26.096C729.183 22.7361 727.361 21.0561 724.357 21.0561C721.991 21.0561 720.192 22.0797 718.963 24.127C718.589 24.7521 718.301 25.4397 718.099 26.1898C718.472 26.2054 718.931 26.221 719.476 26.2367H721.204C721.78 26.2523 722.333 26.2601 722.862 26.2601H724.193C724.987 26.2601 725.766 26.2523 726.529 26.2367L728.443 26.1663C728.957 26.1507 729.416 26.1273 729.821 26.096Z" fill="#CACACA"/>
<path d="M570.375 17.2145C572.586 16.0112 574.586 15.4095 576.376 15.4095C578.167 15.4095 579.7 15.5736 580.977 15.9018C582.253 16.2456 583.335 16.7456 584.223 17.402C586.029 18.7303 586.931 20.6525 586.931 23.1686C586.931 25.4189 585.826 27.2942 583.616 28.7945C581.218 30.4197 577.964 31.2324 573.854 31.2324L572.92 31.2089C572.734 31.1933 572.523 31.1777 572.29 31.162C572.056 31.162 571.846 31.1464 571.659 31.1151C571.784 33.6156 572.858 35.0767 574.882 35.4987C575.551 35.6393 576.267 35.7096 577.03 35.7096C577.778 35.7096 578.517 35.6393 579.249 35.4987C579.965 35.3736 580.665 35.2017 581.35 34.983C582.86 34.4985 583.942 33.9437 584.596 33.3186L584.666 33.3655L585.367 38.546C582.611 39.9994 579.599 40.7261 576.33 40.7261C571.255 40.7261 568.009 38.8898 566.592 35.2174C566.141 34.0453 565.915 32.7248 565.915 31.2558V22.7701C565.915 20.9573 565.277 19.7227 564 19.0663L568.227 15.1751C569.114 15.6439 569.83 16.3237 570.375 17.2145ZM571.636 26.8957C572.056 26.9739 572.492 27.0129 572.944 27.0129H573.878C577.318 27.0129 579.506 26.2472 580.44 24.7157C580.72 24.2625 580.86 23.7858 580.86 23.2858C580.86 22.7857 580.774 22.3403 580.603 21.9496C580.416 21.5745 580.113 21.262 579.692 21.012C578.883 20.5431 577.684 20.3087 576.096 20.3087C574.493 20.3087 572.998 20.6916 571.613 21.4573C571.628 21.6292 571.636 21.809 571.636 21.9965V26.8957Z" fill="#CACACA"/>
<path d="M571.161 54.2723C570.123 53.2307 570.123 51.542 571.161 50.5004L573.429 48.2239C574.466 47.1823 576.148 47.1823 577.186 48.2239L579.454 50.5004C580.491 51.542 580.491 53.2307 579.454 54.2723L577.186 56.5488C576.148 57.5904 574.466 57.5904 573.429 56.5488L571.161 54.2723Z" fill="#CACACA"/>
<path d="M929.156 36.4503H925.2V27.9464C925.2 26.8958 925.022 26.1101 924.668 25.5892C924.322 25.0596 923.772 24.7948 923.02 24.7948C922.008 24.7948 921.273 25.1681 920.815 25.9148C920.356 26.6614 920.127 27.8899 920.127 29.6003V36.4503H916.17V21.8907H919.193L919.725 23.753H919.945C920.335 23.0845 920.897 22.5635 921.632 22.1902C922.367 21.8082 923.21 21.6172 924.162 21.6172C926.333 21.6172 927.803 22.3291 928.573 23.753H928.923C929.312 23.0758 929.883 22.5505 930.635 22.1772C931.396 21.8039 932.253 21.6172 933.204 21.6172C934.847 21.6172 936.088 22.0426 936.927 22.8935C937.775 23.7356 938.199 25.09 938.199 26.9566V36.4503H934.229V27.9464C934.229 26.8958 934.052 26.1101 933.697 25.5892C933.351 25.0596 932.802 24.7948 932.049 24.7948C931.081 24.7948 930.354 25.1421 929.87 25.8366C929.394 26.5312 929.156 27.6338 929.156 29.1445V36.4503Z" fill="#CACACA"/>
<path d="M951.483 36.4503L950.718 34.4708H950.614C949.948 35.313 949.261 35.899 948.551 36.2289C947.851 36.5502 946.934 36.7108 945.801 36.7108C944.409 36.7108 943.31 36.3114 942.506 35.5127C941.71 34.7139 941.312 33.5766 941.312 32.1007C941.312 30.5553 941.849 29.4179 942.921 28.6887C944.002 27.9507 945.628 27.5426 947.799 27.4645L950.316 27.3864V26.7482C950.316 25.2723 949.563 24.5343 948.058 24.5343C946.899 24.5343 945.537 24.886 943.972 25.5892L942.661 22.9065C944.331 22.0296 946.182 21.5912 948.214 21.5912C950.16 21.5912 951.652 22.0166 952.69 22.8674C953.728 23.7182 954.247 25.0119 954.247 26.7482V36.4503H951.483ZM950.316 29.7045L948.785 29.7565C947.635 29.7913 946.778 29.9996 946.216 30.3816C945.654 30.7636 945.373 31.3453 945.373 32.1267C945.373 33.2467 946.013 33.8067 947.293 33.8067C948.21 33.8067 948.941 33.5419 949.485 33.0123C950.039 32.4827 950.316 31.7794 950.316 30.9026V29.7045Z" fill="#CACACA"/>
<path d="M971.722 36.4503H967.765V27.9464C967.765 26.8958 967.579 26.1101 967.207 25.5892C966.835 25.0596 966.242 24.7948 965.43 24.7948C964.322 24.7948 963.522 25.1681 963.029 25.9148C962.536 26.6527 962.29 27.8812 962.29 29.6003V36.4503H958.333V21.8907H961.356L961.888 23.753H962.108C962.549 23.0497 963.155 22.5201 963.925 22.1642C964.703 21.7995 965.585 21.6172 966.571 21.6172C968.258 21.6172 969.538 22.0774 970.411 22.9976C971.285 23.9092 971.722 25.2289 971.722 26.9566V36.4503Z" fill="#CACACA"/>
<path d="M981.906 33.5462C982.597 33.5462 983.428 33.3943 984.396 33.0904V36.0466C983.41 36.4894 982.2 36.7108 980.764 36.7108C979.181 36.7108 978.027 36.3114 977.3 35.5127C976.582 34.7053 976.223 33.4985 976.223 31.8923V24.8729H974.329V23.193L976.509 21.8646L977.65 18.7912H980.18V21.8907H984.241V24.8729H980.18V31.8923C980.18 32.4566 980.336 32.8734 980.647 33.1425C980.967 33.4116 981.387 33.5462 981.906 33.5462Z" fill="#CACACA"/>
<path d="M1000.73 36.4503H996.773V27.9464C996.773 25.8453 995.994 24.7948 994.438 24.7948C993.331 24.7948 992.531 25.1725 992.038 25.9278C991.545 26.6831 991.298 27.9073 991.298 29.6003V36.4503H987.341V16.1866H991.298V20.3149C991.298 20.6361 991.268 21.3915 991.207 22.5809L991.117 23.753H991.324C992.206 22.3291 993.607 21.6172 995.527 21.6172C997.231 21.6172 998.524 22.0774 999.406 22.9976C1000.29 23.9179 1000.73 25.2376 1000.73 26.9566V36.4503Z" fill="#CACACA"/>
<path d="M1015.08 36.4503L1014.55 34.5881H1014.34C1013.91 35.2652 1013.31 35.7905 1012.54 36.1638C1011.76 36.5285 1010.87 36.7108 1009.88 36.7108C1008.17 36.7108 1006.89 36.255 1006.02 35.3434C1005.16 34.4231 1004.73 33.1034 1004.73 31.3844V21.8907H1008.68V30.3947C1008.68 31.4452 1008.87 32.2352 1009.24 32.7648C1009.61 33.2858 1010.2 33.5462 1011.02 33.5462C1012.12 33.5462 1012.92 33.1772 1013.42 32.4393C1013.91 31.6926 1014.16 30.4598 1014.16 28.7408V21.8907H1018.11V36.4503H1015.08Z" fill="#CACACA"/>
<path d="M1026.22 36.4503H1022.27V16.1866H1026.22V36.4503Z" fill="#CACACA"/>
<path d="M849 25.7819C849 22.4545 849.653 19.1597 850.921 16.0856C852.19 13.0116 854.049 10.2184 856.393 7.86559C858.737 5.5128 861.519 3.64646 864.582 2.37313C867.644 1.09981 870.926 0.444435 874.241 0.444435C877.555 0.444435 880.838 1.09981 883.9 2.37313C886.962 3.64646 889.745 5.5128 892.089 7.8656C894.432 10.2184 896.292 13.0116 897.56 16.0856C898.829 19.1597 899.481 22.4545 899.481 25.7819L886.861 25.7819C886.861 24.1182 886.535 22.4708 885.9 20.9338C885.266 19.3967 884.337 18.0001 883.165 16.8237C881.993 15.6473 880.601 14.7142 879.07 14.0775C877.539 13.4408 875.898 13.1131 874.241 13.1131C872.583 13.1131 870.942 13.4408 869.411 14.0775C867.88 14.7142 866.489 15.6473 865.317 16.8237C864.145 18.0001 863.215 19.3967 862.581 20.9337C861.947 22.4708 861.62 24.1182 861.62 25.7819L849 25.7819Z" fill="#CACACA"/>
<path fill-rule="evenodd" clip-rule="evenodd" d="M865.598 46.7265C863.68 45.929 861.885 44.8715 860.261 43.5868L865.481 38.3466C866.389 38.9843 867.366 39.5226 868.394 39.9503C870.248 40.721 872.234 41.1177 874.241 41.1177C876.247 41.1177 878.234 40.721 880.087 39.9503C881.116 39.5226 882.092 38.9843 883 38.3466L888.22 43.5868C886.596 44.8715 884.801 45.929 882.883 46.7265C880.143 47.8658 877.206 48.4522 874.241 48.4522C871.275 48.4522 868.338 47.8658 865.598 46.7265ZM890.111 45.4845C890.8 44.9254 891.46 44.3293 892.089 43.6981L883.165 34.74C881.993 35.9164 880.601 36.8496 879.07 37.4862C877.539 38.1229 875.898 38.4506 874.241 38.4506C872.583 38.4506 870.942 38.1229 869.411 37.4862C867.88 36.8496 866.489 35.9164 865.317 34.74L856.393 43.6981C857.022 44.3293 857.682 44.9254 858.371 45.4845C860.25 47.0096 862.341 48.2588 864.581 49.1906C867.644 50.4639 870.926 51.1193 874.241 51.1193C877.555 51.1193 880.838 50.4639 883.9 49.1906C886.141 48.2588 888.232 47.0096 890.111 45.4845Z" fill="#CACACA"/>
<path d="M1195.56 30.6946H1205.05L1202.32 43.5951C1200.81 44.1143 1199.41 44.4642 1198.12 44.6448C1196.84 44.8367 1195.48 44.9326 1194.04 44.9326C1191.13 44.9326 1188.88 44.103 1187.29 42.4439C1185.71 40.7848 1184.91 38.4033 1184.91 35.2995C1184.91 32.2747 1185.52 29.5434 1186.72 27.1055C1187.92 24.6563 1189.61 22.7715 1191.79 21.451C1193.98 20.1191 1196.49 19.4532 1199.35 19.4532C1201.8 19.4532 1204.11 20.0119 1206.26 21.1293L1204.33 25.3787C1203.49 24.9272 1202.66 24.566 1201.83 24.2952C1201 24.0243 1200.09 23.8888 1199.11 23.8888C1197.39 23.8888 1195.85 24.3572 1194.49 25.294C1193.14 26.2308 1192.08 27.5683 1191.31 29.3064C1190.54 31.0332 1190.16 32.8955 1190.16 34.8932C1190.16 36.8345 1190.56 38.2623 1191.37 39.1765C1192.19 40.0794 1193.45 40.5309 1195.13 40.5309C1195.99 40.5309 1196.94 40.3954 1198 40.1245L1199.11 35.0625H1194.61L1195.56 30.6946Z" fill="#CACACA"/>
<path d="M1212.39 44.594H1207.31L1212.88 18.2512H1217.95L1212.39 44.594Z" fill="#CACACA"/>
<path d="M1230.52 32.8109C1230.52 30.5874 1229.71 29.4757 1228.11 29.4757C1227.26 29.4757 1226.5 29.8199 1225.83 30.5084C1225.17 31.1969 1224.62 32.207 1224.19 33.5388C1223.78 34.8707 1223.57 36.242 1223.57 37.6528C1223.57 39.7408 1224.41 40.7848 1226.1 40.7848C1226.94 40.7848 1227.7 40.4406 1228.38 39.7521C1229.05 39.0523 1229.57 38.0873 1229.94 36.8571C1230.33 35.6156 1230.52 34.2668 1230.52 32.8109ZM1235.63 32.8109C1235.63 35.1923 1235.23 37.3029 1234.43 39.1426C1233.64 40.9823 1232.5 42.4101 1231.01 43.4259C1229.51 44.4304 1227.73 44.9326 1225.68 44.9326C1223.48 44.9326 1221.73 44.2723 1220.41 42.9518C1219.11 41.62 1218.46 39.8537 1218.46 37.6528C1218.46 35.2488 1218.86 33.11 1219.66 31.2364C1220.47 29.3515 1221.63 27.8956 1223.15 26.8685C1224.66 25.8301 1226.44 25.311 1228.48 25.311C1230.68 25.311 1232.42 25.9769 1233.7 27.3087C1234.99 28.6405 1235.63 30.4745 1235.63 32.8109Z" fill="#CACACA"/>
<path d="M1251.58 30.0344C1250.88 32.0434 1250.19 33.8436 1249.51 35.435L1245.58 44.594H1240.11L1239.25 25.6665H1243.99L1244.06 34.0467L1243.99 36.874L1243.87 39.769H1243.94C1244.01 39.5433 1244.09 39.3119 1244.18 39.0749C1244.27 38.8266 1244.55 38.0535 1245.04 36.7555C1245.52 35.4576 1245.78 34.786 1245.81 34.7409L1249.71 25.6665H1255.24V34.7409C1255.24 36.3435 1255.19 38.0196 1255.07 39.769H1255.17L1255.65 38.4146C1256.47 36.067 1257 34.6111 1257.25 34.0467L1260.94 25.6665H1266.12L1257.18 44.594H1251.62L1251.51 35.7905C1251.51 34.0411 1251.57 32.1224 1251.68 30.0344H1251.58Z" fill="#CACACA"/>
<path d="M1288.55 19.8426L1285.16 35.8582C1284.52 38.8604 1283.29 41.1234 1281.48 42.6471C1279.67 44.1708 1277.32 44.9326 1274.42 44.9326C1272.03 44.9326 1270.16 44.2949 1268.78 43.0195C1267.42 41.7329 1266.74 39.9947 1266.74 37.8052C1266.74 36.9925 1266.83 36.2138 1267 35.4688L1270.3 19.8426H1275.45L1272.17 35.4011C1271.98 36.2363 1271.89 36.9417 1271.89 37.5173C1271.89 39.5264 1272.95 40.5309 1275.07 40.5309C1276.46 40.5309 1277.55 40.102 1278.36 39.2442C1279.17 38.3751 1279.76 37.0828 1280.12 35.3673L1283.39 19.8426H1288.55Z" fill="#CACACA"/>
<path d="M1297.05 31.4903H1297.99C1299.59 31.4903 1300.84 31.1009 1301.76 30.3222C1302.68 29.5434 1303.14 28.4994 1303.14 27.1902C1303.14 25.1586 1302.04 24.1428 1299.85 24.1428H1298.6L1297.05 31.4903ZM1308.32 27.0547C1308.32 29.7748 1307.36 31.9136 1305.45 33.4711C1303.55 35.0174 1300.92 35.7905 1297.57 35.7905H1296.12L1294.28 44.594H1289.14L1294.35 19.8426H1300.05C1302.77 19.8426 1304.83 20.4465 1306.22 21.6541C1307.62 22.8505 1308.32 24.6507 1308.32 27.0547Z" fill="#CACACA"/>
<path d="M1166.04 24.4997H1155.5L1159.39 16.3859C1159.75 15.4357 1158.7 14.498 1157.27 14.498H1144.12C1143.02 14.498 1142.09 15.0544 1141.94 15.7983L1139.02 30.8007C1138.85 31.7008 1139.87 32.5009 1141.19 32.5009H1152.03L1147.82 44.6592C1147.49 45.6093 1148.55 46.5032 1149.95 46.5032C1150.72 46.5032 1151.45 46.2282 1151.85 45.7531L1167.93 26.75C1168.78 25.7561 1167.72 24.4997 1166.04 24.4997Z" fill="#CACACA"/>
</svg>
