<svg width="32" height="32" viewBox="0 0 32 32" fill="none" xmlns="http://www.w3.org/2000/svg">
<path d="M16 30.6668C18.9008 30.6668 21.7365 29.8067 24.1484 28.1951C26.5603 26.5835 28.4402 24.2928 29.5503 21.6129C30.6603 18.9329 30.9508 15.9839 30.3849 13.1388C29.819 10.2938 28.4221 7.68044 26.3709 5.62927C24.3198 3.5781 21.7064 2.18124 18.8613 1.61532C16.0163 1.0494 13.0673 1.33985 10.3873 2.44994C7.70734 3.56002 5.41672 5.43989 3.80512 7.85181C2.19353 10.2637 1.33334 13.0994 1.33334 16.0002C1.33793 19.8886 2.88464 23.6165 5.63418 26.366C8.38372 29.1155 12.1116 30.6623 16 30.6668ZM16 4.00017C18.3734 4.00017 20.6935 4.70396 22.6669 6.02253C24.6403 7.34111 26.1783 9.21525 27.0866 11.408C27.9948 13.6007 28.2325 16.0135 27.7695 18.3413C27.3064 20.669 26.1635 22.8072 24.4853 24.4855C22.8071 26.1637 20.6689 27.3066 18.3411 27.7696C16.0133 28.2326 13.6005 27.995 11.4078 27.0867C9.2151 26.1785 7.34096 24.6404 6.02238 22.667C4.7038 20.6936 4.00001 18.3735 4.00001 16.0002C4.00354 12.8187 5.26896 9.76846 7.51863 7.51879C9.7683 5.26911 12.8185 4.0037 16 4.00017Z" fill="#FF5353"/>
<path d="M11.0573 20.9427C11.3074 21.1927 11.6465 21.3331 12 21.3331C12.3536 21.3331 12.6926 21.1927 12.9427 20.9427L16 17.8854L19.0574 20.9427C19.3088 21.1856 19.6456 21.32 19.9952 21.317C20.3448 21.3139 20.6792 21.1737 20.9265 20.9265C21.1737 20.6793 21.3139 20.3449 21.3169 19.9953C21.32 19.6457 21.1856 19.3089 20.9427 19.0574L17.8854 16.0001L20.9427 12.9427C21.1856 12.6913 21.32 12.3544 21.3169 12.0049C21.3139 11.6553 21.1737 11.3208 20.9265 11.0736C20.6792 10.8264 20.3448 10.6862 19.9952 10.6832C19.6456 10.6801 19.3088 10.8145 19.0574 11.0574L16 14.1147L12.9427 11.0574C12.6912 10.8145 12.3544 10.6801 12.0048 10.6832C11.6552 10.6862 11.3208 10.8264 11.0736 11.0736C10.8264 11.3208 10.6861 11.6553 10.6831 12.0049C10.6801 12.3544 10.8145 12.6913 11.0573 12.9427L14.1147 16.0001L11.0573 19.0574C10.8074 19.3074 10.667 19.6465 10.667 20.0001C10.667 20.3536 10.8074 20.6927 11.0573 20.9427Z" fill="#FF5353"/>
</svg>
