<svg width="1620" height="315" viewBox="0 0 1620 315" fill="none" xmlns="http://www.w3.org/2000/svg">
<rect width="1620" height="315" rx="20" fill="#5F4BDB"/>
<mask id="mask0_2_42" style="mask-type:alpha" maskUnits="userSpaceOnUse" x="0" y="0" width="1620" height="315">
<rect width="1620" height="315" rx="20" fill="#5F4BDB"/>
</mask>
<g mask="url(#mask0_2_42)">
<circle cx="395.5" cy="409.5" r="164.5" fill="#5241BB"/>
<circle r="143" fill="#5241BB" fill-opacity="0.33"/>
<circle cx="1474.5" cy="0.5" r="135.5" fill="#6B58E0"/>
<circle cx="31" cy="31" r="31" transform="matrix(-1 0 0 1 191 68)" fill="#6B58E0"/>
<circle cx="493.945" cy="277.621" r="1.94536" transform="rotate(-90 493.945 277.621)" fill="white"/>
<circle cx="493.945" cy="268.283" r="1.94536" transform="rotate(-90 493.945 268.283)" fill="white"/>
<circle cx="493.945" cy="258.945" r="1.94536" transform="rotate(-90 493.945 258.945)" fill="white"/>
<circle cx="503.283" cy="277.621" r="1.94536" transform="rotate(-90 503.283 277.621)" fill="white"/>
<circle cx="503.283" cy="268.283" r="1.94536" transform="rotate(-90 503.283 268.283)" fill="white"/>
<circle cx="503.283" cy="258.945" r="1.94536" transform="rotate(-90 503.283 258.945)" fill="white"/>
<circle cx="512.621" cy="277.621" r="1.94536" transform="rotate(-90 512.621 277.621)" fill="white"/>
<circle cx="512.621" cy="268.283" r="1.94536" transform="rotate(-90 512.621 268.283)" fill="white"/>
<circle cx="512.621" cy="258.945" r="1.94536" transform="rotate(-90 512.621 258.945)" fill="white"/>
<circle cx="521.958" cy="277.621" r="1.94536" transform="rotate(-90 521.958 277.621)" fill="white"/>
<circle cx="521.958" cy="268.283" r="1.94536" transform="rotate(-90 521.958 268.283)" fill="white"/>
<circle cx="521.958" cy="258.945" r="1.94536" transform="rotate(-90 521.958 258.945)" fill="white"/>
<circle cx="531.296" cy="277.621" r="1.94536" transform="rotate(-90 531.296 277.621)" fill="white"/>
<circle cx="531.296" cy="268.283" r="1.94536" transform="rotate(-90 531.296 268.283)" fill="white"/>
<circle cx="531.296" cy="258.945" r="1.94536" transform="rotate(-90 531.296 258.945)" fill="white"/>
<circle cx="1579.95" cy="268.229" r="3.6747" transform="rotate(180 1579.95 268.229)" fill="white" fill-opacity="0.17"/>
<circle cx="1562.31" cy="268.229" r="3.6747" transform="rotate(180 1562.31 268.229)" fill="white" fill-opacity="0.17"/>
<circle cx="1544.67" cy="268.229" r="3.6747" transform="rotate(180 1544.67 268.229)" fill="white" fill-opacity="0.17"/>
<circle cx="1579.95" cy="250.59" r="3.6747" transform="rotate(180 1579.95 250.59)" fill="white" fill-opacity="0.17"/>
<circle cx="1562.31" cy="250.59" r="3.6747" transform="rotate(180 1562.31 250.59)" fill="white" fill-opacity="0.17"/>
<circle cx="1544.67" cy="250.59" r="3.6747" transform="rotate(180 1544.67 250.59)" fill="white" fill-opacity="0.17"/>
<circle cx="1579.95" cy="232.952" r="3.6747" transform="rotate(180 1579.95 232.952)" fill="white" fill-opacity="0.17"/>
<circle cx="1562.31" cy="232.952" r="3.6747" transform="rotate(180 1562.31 232.952)" fill="white" fill-opacity="0.17"/>
<circle cx="1544.67" cy="232.952" r="3.6747" transform="rotate(180 1544.67 232.952)" fill="white" fill-opacity="0.17"/>
<circle cx="1579.95" cy="215.313" r="3.6747" transform="rotate(180 1579.95 215.313)" fill="white" fill-opacity="0.17"/>
<circle cx="1562.31" cy="215.313" r="3.6747" transform="rotate(180 1562.31 215.313)" fill="white" fill-opacity="0.17"/>
<circle cx="1544.67" cy="215.313" r="3.6747" transform="rotate(180 1544.67 215.313)" fill="white" fill-opacity="0.17"/>
<circle cx="1579.95" cy="197.675" r="3.6747" transform="rotate(180 1579.95 197.675)" fill="white" fill-opacity="0.17"/>
<circle cx="1562.31" cy="197.675" r="3.6747" transform="rotate(180 1562.31 197.675)" fill="white" fill-opacity="0.17"/>
<circle cx="1544.67" cy="197.675" r="3.6747" transform="rotate(180 1544.67 197.675)" fill="white" fill-opacity="0.17"/>
</g>
</svg>
