<svg width="265" height="65" viewBox="0 0 265 65" fill="none" xmlns="http://www.w3.org/2000/svg">
<circle cx="32.5" cy="32.5" r="30.5" fill="#C4C4C4" stroke="white" stroke-width="4"/>
<circle cx="82.5" cy="32.5" r="30.5" fill="#C4C4C4" stroke="white" stroke-width="4"/>
<circle cx="132.5" cy="32.5" r="30.5" fill="#C4C4C4" stroke="white" stroke-width="4"/>
<circle cx="182.5" cy="32.5" r="30.5" fill="#C4C4C4" stroke="white" stroke-width="4"/>
<circle cx="232.5" cy="32.5" r="30.5" fill="#5F4BDB" stroke="white" stroke-width="4"/>
<path d="M216.552 36.472C217.576 35.6187 218.392 34.9093 219 34.344C219.608 33.768 220.115 33.1707 220.52 32.552C220.925 31.9333 221.128 31.3253 221.128 30.728C221.128 30.184 221 29.7573 220.744 29.448C220.488 29.1387 220.093 28.984 219.56 28.984C219.027 28.984 218.616 29.1653 218.328 29.528C218.04 29.88 217.891 30.3653 217.88 30.984H215.704C215.747 29.704 216.125 28.7333 216.84 28.072C217.565 27.4107 218.483 27.08 219.592 27.08C220.808 27.08 221.741 27.4053 222.392 28.056C223.043 28.696 223.368 29.544 223.368 30.6C223.368 31.432 223.144 32.2267 222.696 32.984C222.248 33.7413 221.736 34.4027 221.16 34.968C220.584 35.5227 219.832 36.1947 218.904 36.984H223.624V38.84H215.72V37.176L216.552 36.472ZM224.764 29.4V27.336H228.62V39H226.316V29.4H224.764ZM236.336 39L233.328 35.224V39H231.088V27.16H233.328V33.896L236.304 30.136H239.216L235.312 34.584L239.248 39H236.336ZM248.8 34.28H245.776V37.384H243.664V34.28H240.64V32.328H243.664V29.224H245.776V32.328H248.8V34.28Z" fill="white"/>
</svg>
