<svg width="156" height="166" viewBox="0 0 156 166" fill="none" xmlns="http://www.w3.org/2000/svg">
<g filter="url(#filter0_d_1_1047)">
<path d="M102 101.224C111.389 101.224 119 93.6127 119 84.2239V35C119 25.6112 111.389 18 102 18L54 18C44.6112 18 37 25.6112 37 35L37 101.224H102Z" fill="white"/>
<path d="M46.1924 92L55.3848 101.192L37 110V101.192L46.1924 92Z" fill="white"/>
</g>
<g clip-path="url(#clip0_1_1047)">
<path d="M78.6487 35.6135V83.6097C91.7835 83.4706 102.388 72.7792 102.388 59.6116C102.388 46.4439 91.7835 35.7526 78.6487 35.6135Z" fill="#FFB739"/>
<path d="M78.6487 35.6135C78.5618 35.6125 78.4749 35.6116 78.3879 35.6116C65.1334 35.6116 54.3879 46.357 54.3879 59.6116C54.3879 72.8661 65.1334 83.6116 78.3879 83.6116C78.4749 83.6116 78.5618 83.6106 78.6487 83.6096C89.6491 83.4435 98.5248 72.7628 98.5248 59.6116C98.5248 46.4603 89.6491 35.7796 78.6487 35.6135Z" fill="#FFD17E"/>
<path d="M93.6958 56.7141H92.2471L78.3879 70.887H90.7728C93.4874 67.9081 95.1445 63.9497 95.1445 59.6115V58.1628C95.1445 57.366 94.4926 56.7141 93.6958 56.7141Z" fill="#09213D"/>
<path d="M64.5288 56.7141H63.0801C62.2833 56.7141 61.6314 57.366 61.6314 58.1628V59.6115C61.6314 63.9494 63.2882 67.9075 66.0023 70.8863L89.4942 69.6244C91.2226 66.8291 92.2471 63.3622 92.2471 59.6115L64.5288 56.7141Z" fill="#233952"/>
<path d="M90.7716 70.8858C87.7419 74.2111 83.3958 76.3155 78.5659 76.3658L89.4929 69.6235C89.941 70.0214 90.3679 70.4425 90.7716 70.8858Z" fill="#FF2B59"/>
<path d="M89.4929 69.6239C86.9973 73.6599 83.0336 76.2965 78.5659 76.3661C78.5069 76.3671 78.4471 76.3671 78.3872 76.3671C73.4858 76.3671 69.0702 74.252 66.0018 70.8871C69.0692 67.5204 73.4858 65.4053 78.3872 65.4053C82.6434 65.4053 86.5346 67.0008 89.4929 69.6239Z" fill="#FF4E51"/>
<path d="M89.3497 56.7141L87.901 61.0602H90.7984C91.5952 61.0602 92.2471 60.4083 92.2471 59.6115V56.7141H89.3497Z" fill="#FFEAC3"/>
<path d="M89.3497 56.7141V59.6115C89.3497 60.4083 88.6978 61.0602 87.901 61.0602H65.9775C65.1807 61.0602 64.5288 60.4083 64.5288 59.6115V56.7141H89.3497Z" fill="white"/>
<path d="M70.3236 46.5732C69.5235 46.5732 68.8749 47.2219 68.8749 48.0219V52.368C68.8749 53.1681 69.5235 53.8167 70.3236 53.8167C71.1236 53.8167 71.7723 53.1681 71.7723 52.368V48.0219C71.7723 47.2219 71.1237 46.5732 70.3236 46.5732Z" fill="#233952"/>
<path d="M86.4524 46.5732C85.6523 46.5732 85.0037 47.2219 85.0037 48.0219V52.368C85.0037 53.1681 85.6523 53.8167 86.4524 53.8167C87.2524 53.8167 87.901 53.1681 87.901 52.368V48.0219C87.901 47.2219 87.2524 46.5732 86.4524 46.5732Z" fill="#233952"/>
<path d="M64.5288 53.8168C65.3289 53.8168 65.9775 53.1682 65.9775 52.3681C65.9775 51.568 65.3289 50.9194 64.5288 50.9194C63.7287 50.9194 63.0801 51.568 63.0801 52.3681C63.0801 53.1682 63.7287 53.8168 64.5288 53.8168Z" fill="#FF4E51"/>
<path d="M92.2471 53.8168C93.0472 53.8168 93.6958 53.1682 93.6958 52.3681C93.6958 51.568 93.0472 50.9194 92.2471 50.9194C91.447 50.9194 90.7984 51.568 90.7984 52.3681C90.7984 53.1682 91.447 53.8168 92.2471 53.8168Z" fill="#FF4E51"/>
</g>
<defs>
<filter id="filter0_d_1_1047" x="0" y="0" width="156" height="166" filterUnits="userSpaceOnUse" color-interpolation-filters="sRGB">
<feFlood flood-opacity="0" result="BackgroundImageFix"/>
<feColorMatrix in="SourceAlpha" type="matrix" values="0 0 0 0 0 0 0 0 0 0 0 0 0 0 0 0 0 0 127 0" result="hardAlpha"/>
<feOffset dy="19"/>
<feGaussianBlur stdDeviation="18.5"/>
<feColorMatrix type="matrix" values="0 0 0 0 0.243137 0 0 0 0 0.207843 0 0 0 0 0.470588 0 0 0 0.03 0"/>
<feBlend mode="normal" in2="BackgroundImageFix" result="effect1_dropShadow_1_1047"/>
<feBlend mode="normal" in="SourceGraphic" in2="effect1_dropShadow_1_1047" result="shape"/>
</filter>
<clipPath id="clip0_1_1047">
<rect width="48" height="48" fill="white" transform="translate(54.3879 35.6116)"/>
</clipPath>
</defs>
</svg>
