<svg width="24" height="24" viewBox="0 0 24 24" fill="none" xmlns="http://www.w3.org/2000/svg">
<path d="M23.9355 9.19053C23.7506 8.62141 23.1982 8.23023 22.4201 8.11721L16.2489 7.22039L13.4891 1.62839C13.1411 0.923243 12.5983 0.518799 12 0.518799C11.4017 0.518799 10.859 0.923243 10.511 1.62839L7.75124 7.22034L1.58 8.11717C0.801769 8.23019 0.249432 8.62141 0.0645077 9.19043C-0.12037 9.75951 0.0965708 10.4006 0.659595 10.9495L5.12512 15.3022L4.07093 21.4486C3.93232 22.257 4.16773 22.7405 4.38968 23.0037C4.64928 23.3116 5.02799 23.4812 5.45606 23.4812C5.77969 23.4812 6.12437 23.3863 6.4803 23.1991L12 20.2972L17.5197 23.199C17.8757 23.3862 18.2204 23.4812 18.544 23.4812H18.5441C18.9723 23.4812 19.351 23.3116 19.6106 23.0037C19.8325 22.7405 20.0679 22.257 19.9293 21.4485L18.8749 15.3022L23.3404 10.9496C23.9035 10.4007 24.1204 9.75955 23.9355 9.19053Z" fill="#C9C9C9"/>
</svg>
