<svg width="81" height="43" viewBox="0 0 81 43" fill="none" xmlns="http://www.w3.org/2000/svg">
<path d="M2 19L15.744 6.73604C18.6614 4.1328 23.1457 4.42415 25.7017 7.383L30.3669 12.7835C33.1839 16.0444 38.2501 16.0101 41.0227 12.7114L44.878 8.12464C47.6031 4.88238 52.5608 4.78406 55.4124 7.91574L59.9639 12.9144C62.8687 16.1045 67.9399 15.9329 70.6223 12.5537L79 2" stroke="#5F4BDB" stroke-width="5"/>
<path d="M2 41L15.744 28.736C18.6614 26.1328 23.1457 26.4241 25.7017 29.383L30.3669 34.7835C33.1839 38.0444 38.2501 38.0101 41.0227 34.7114L44.878 30.1246C47.6031 26.8824 52.5608 26.7841 55.4124 29.9157L59.9639 34.9144C62.8687 38.1045 67.9399 37.9329 70.6223 34.5537L79 24" stroke="#5F4BDB" stroke-width="5"/>
</svg>
