<svg width="24" height="24" viewBox="0 0 24 24" fill="none" xmlns="http://www.w3.org/2000/svg">
<path fill-rule="evenodd" clip-rule="evenodd" d="M20 5H4C3.44772 5 3 5.44772 3 6V18C3 18.5523 3.44772 19 4 19H20C20.5523 19 21 18.5523 21 18V6C21 5.44772 20.5523 5 20 5ZM4 3C2.34315 3 1 4.34315 1 6V18C1 19.6569 2.34315 21 4 21H20C21.6569 21 23 19.6569 23 18V6C23 4.34315 21.6569 3 20 3H4Z" fill="white"/>
<path fill-rule="evenodd" clip-rule="evenodd" d="M5.23171 7.3596C5.58528 6.93532 6.21584 6.878 6.64012 7.23156L11.3597 11.1646C11.7306 11.4736 12.2692 11.4736 12.6401 11.1646L17.3597 7.23156C17.784 6.878 18.4146 6.93532 18.7681 7.3596C19.1217 7.78388 19.0644 8.41443 18.6401 8.768L13.9204 12.701C12.8079 13.6282 11.1919 13.6282 10.0793 12.701L5.35975 8.768C4.93547 8.41443 4.87815 7.78388 5.23171 7.3596Z" fill="white"/>
</svg>
