<svg width="24" height="24" viewBox="0 0 24 24" fill="none" xmlns="http://www.w3.org/2000/svg">
<path fill-rule="evenodd" clip-rule="evenodd" d="M16.6415 16.2446C18.0423 14.3002 19 12.1632 19 10.0001C19 6.13413 15.866 3.00012 12 3.00012C8.13401 3.00012 5 6.13413 5 10.0001C5 12.1632 5.95769 14.3002 7.35846 16.2446C8.74868 18.1743 10.4581 19.7504 11.6769 20.7486C11.8768 20.9123 12.1232 20.9123 12.3231 20.7486C13.5419 19.7504 15.2513 18.1743 16.6415 16.2446ZM13.5904 22.2958C16.1746 20.1792 21 15.4918 21 10.0001C21 5.02956 16.9706 1.00012 12 1.00012C7.02944 1.00012 3 5.02956 3 10.0001C3 15.4918 7.82537 20.1792 10.4096 22.2958C11.3466 23.0632 12.6534 23.0632 13.5904 22.2958Z" fill="white"/>
<path fill-rule="evenodd" clip-rule="evenodd" d="M12 8C10.8954 8 10 8.89542 10 9.99999C10 11.1046 10.8954 12 12 12C13.1046 12 14 11.1046 14 9.99999C14 8.89542 13.1046 8 12 8ZM8.00003 9.99999C8.00003 7.79086 9.79089 6 12 6C14.2091 6 16 7.79086 16 9.99999C16 12.2091 14.2091 14 12 14C9.79089 14 8.00003 12.2091 8.00003 9.99999Z" fill="white"/>
</svg>
