<svg width="84" height="84" viewBox="0 0 84 84" fill="none" xmlns="http://www.w3.org/2000/svg">
<rect width="84" height="84" rx="26" fill="#E9FFEF"/>
<path d="M32.98 36.668C33.1 34.268 33.94 32.42 35.5 31.124C37.084 29.804 39.16 29.144 41.728 29.144C43.48 29.144 44.98 29.456 46.228 30.08C47.476 30.68 48.412 31.508 49.036 32.564C49.684 33.596 50.008 34.772 50.008 36.092C50.008 37.604 49.612 38.888 48.82 39.944C48.052 40.976 47.128 41.672 46.048 42.032V42.176C47.44 42.608 48.52 43.376 49.288 44.48C50.08 45.584 50.476 47 50.476 48.728C50.476 50.168 50.14 51.452 49.468 52.58C48.82 53.708 47.848 54.596 46.552 55.244C45.28 55.868 43.744 56.18 41.944 56.18C39.232 56.18 37.024 55.496 35.32 54.128C33.616 52.76 32.716 50.744 32.62 48.08H37.516C37.564 49.256 37.96 50.204 38.704 50.924C39.472 51.62 40.516 51.968 41.836 51.968C43.06 51.968 43.996 51.632 44.644 50.96C45.316 50.264 45.652 49.376 45.652 48.296C45.652 46.856 45.196 45.824 44.284 45.2C43.372 44.576 41.956 44.264 40.036 44.264H38.992V40.124H40.036C43.444 40.124 45.148 38.984 45.148 36.704C45.148 35.672 44.836 34.868 44.212 34.292C43.612 33.716 42.736 33.428 41.584 33.428C40.456 33.428 39.58 33.74 38.956 34.364C38.356 34.964 38.008 35.732 37.912 36.668H32.98Z" fill="#3DCD65"/>
</svg>
