<svg width="84" height="84" viewBox="0 0 84 84" fill="none" xmlns="http://www.w3.org/2000/svg">
<rect width="84" height="84" rx="26" fill="#E7E9FF"/>
<path d="M38.492 50.312C40.796 48.392 42.632 46.796 44 45.524C45.368 44.228 46.508 42.884 47.42 41.492C48.332 40.1 48.788 38.732 48.788 37.388C48.788 36.164 48.5 35.204 47.924 34.508C47.348 33.812 46.46 33.464 45.26 33.464C44.06 33.464 43.136 33.872 42.488 34.688C41.84 35.48 41.504 36.572 41.48 37.964H36.584C36.68 35.084 37.532 32.9 39.14 31.412C40.772 29.924 42.836 29.18 45.332 29.18C48.068 29.18 50.168 29.912 51.632 31.376C53.096 32.816 53.828 34.724 53.828 37.1C53.828 38.972 53.324 40.76 52.316 42.464C51.308 44.168 50.156 45.656 48.86 46.928C47.564 48.176 45.872 49.688 43.784 51.464H54.404V55.64H36.62V51.896L38.492 50.312Z" fill="#2B3DC7"/>
</svg>
