<svg width="24" height="24" viewBox="0 0 24 24" fill="none" xmlns="http://www.w3.org/2000/svg">
<path fill-rule="evenodd" clip-rule="evenodd" d="M4.64758 2.3525C5.93851 1.06157 8.07352 1.2133 9.1689 2.67382L10.9872 5.09818C11.8829 6.29254 11.7642 7.96383 10.7085 9.0195L9.36793 10.3601C9.49785 10.6983 9.92553 11.4403 11.2279 12.7427C12.5303 14.0451 13.2724 14.4728 13.6106 14.6027L14.9511 13.2622C16.0068 12.2065 17.6781 12.0877 18.8724 12.9835L21.2968 14.8018C22.7573 15.8972 22.9091 18.0322 21.6181 19.3231C21.1984 19.7428 21.1274 19.8138 20.427 20.5142C19.7132 21.228 18.1976 21.8952 16.663 21.9619C14.2617 22.0663 11 21.0001 6.98529 16.9854C2.97062 12.9707 1.90435 9.70891 2.00876 7.30758C2.06684 5.97178 2.49153 4.50465 3.46206 3.54919C4.15686 2.84322 4.24722 2.75286 4.64758 2.3525ZM4.00687 7.39446C3.9345 9.059 4.63601 11.8077 8.39951 15.5712C12.163 19.3347 14.9116 20.0362 16.5762 19.9638C18.13 19.8962 18.9636 19.1454 19.0128 19.1L20.2039 17.9089C20.6342 17.4786 20.5837 16.7669 20.0968 16.4018L17.6724 14.5835C17.2743 14.2849 16.7172 14.3245 16.3653 14.6764C15.8352 15.2066 15.4732 15.5738 14.7648 16.2796C13.2932 17.7457 10.7741 15.1173 9.81372 14.157C8.93114 13.2744 6.24148 10.6753 7.68962 9.20996C7.69249 9.20708 8.08254 8.81703 9.29428 7.60529C9.64617 7.2534 9.68577 6.6963 9.38718 6.29818L7.5689 3.87382C7.20377 3.38698 6.4921 3.3364 6.0618 3.76671C5.66574 4.16276 5.21752 4.61098 4.87189 4.95901C4.16052 5.6753 4.04494 6.51886 4.00687 7.39446Z" fill="white"/>
</svg>
