<svg width="24" height="24" viewBox="0 0 24 24" fill="none" xmlns="http://www.w3.org/2000/svg">
<g clip-path="url(#clip0_1_1096)">
<path d="M12 0C5.37262 0 0 5.37262 0 12C0 18.6274 5.37262 24 12 24C18.6278 24 24 18.6274 24 12C24 5.37262 18.6278 0 12 0ZM12 21.6C6.70655 21.6 2.4 17.2935 2.4 12C2.4 6.70655 6.70655 2.4 12 2.4C17.2935 2.4 21.6 6.70655 21.6 12C21.6 17.2935 17.2935 21.6 12 21.6Z" fill="#5F4BDB"/>
<path d="M16.3646 11.1599L10.5451 7.79986C9.74494 7.33809 9.09024 7.71586 9.09024 8.63986V15.3598C9.09024 16.2838 9.74494 16.6621 10.5451 16.1998L16.3646 12.8399C17.1648 12.3781 17.1648 11.6216 16.3646 11.1599Z" fill="#5F4BDB"/>
</g>
<defs>
<clipPath id="clip0_1_1096">
<rect width="24" height="24" fill="white"/>
</clipPath>
</defs>
</svg>
